<svg width="136" height="32" viewBox="0 0 136 32" fill="none" xmlns="http://www.w3.org/2000/svg">
<path d="M39.9257 24V11.5H36.0657V9.1H46.4657V11.5H42.6657V24H39.9257ZM46.7141 24V13.12H49.1741V15.54L48.9741 15.18C49.2275 14.3667 49.6208 13.8 50.1541 13.48C50.7008 13.16 51.3541 13 52.1141 13H52.7541V15.32H51.8141C51.0675 15.32 50.4675 15.5533 50.0141 16.02C49.5608 16.4733 49.3341 17.1133 49.3341 17.94V24H46.7141ZM54.1946 24V13.12H56.8146V24H54.1946ZM54.1946 11.9V9.1H56.8146V11.9H54.1946ZM59.2337 28V13.12H61.6937V15.28L61.4537 14.74C61.827 14.1533 62.3337 13.7 62.9737 13.38C63.6137 13.0467 64.3537 12.88 65.1937 12.88C66.2203 12.88 67.147 13.1333 67.9737 13.64C68.8003 14.1467 69.4537 14.8267 69.9337 15.68C70.427 16.5333 70.6737 17.4933 70.6737 18.56C70.6737 19.6133 70.4337 20.5733 69.9537 21.44C69.4737 22.3067 68.8203 22.9933 67.9937 23.5C67.167 23.9933 66.227 24.24 65.1737 24.24C64.387 24.24 63.6603 24.0867 62.9937 23.78C62.3403 23.46 61.8203 23.0067 61.4337 22.42L61.8537 21.9V28H59.2337ZM64.8737 21.84C65.4737 21.84 66.007 21.7 66.4737 21.42C66.9403 21.14 67.3003 20.7533 67.5537 20.26C67.8203 19.7667 67.9537 19.2 67.9537 18.56C67.9537 17.92 67.8203 17.36 67.5537 16.88C67.3003 16.3867 66.9403 16 66.4737 15.72C66.007 15.4267 65.4737 15.28 64.8737 15.28C64.3003 15.28 63.7803 15.42 63.3137 15.7C62.8603 15.98 62.5003 16.3733 62.2337 16.88C61.9803 17.3733 61.8537 17.9333 61.8537 18.56C61.8537 19.2 61.9803 19.7667 62.2337 20.26C62.5003 20.7533 62.8603 21.14 63.3137 21.42C63.7803 21.7 64.3003 21.84 64.8737 21.84ZM75.5312 24V11.5H71.6712V9.1H82.0712V11.5H78.2712V24H75.5312ZM82.3196 24V13.12H84.7796V15.54L84.5796 15.18C84.8329 14.3667 85.2263 13.8 85.7596 13.48C86.3063 13.16 86.9596 13 87.7196 13H88.3596V15.32H87.4196C86.6729 15.32 86.0729 15.5533 85.6196 16.02C85.1663 16.4733 84.9396 17.1133 84.9396 17.94V24H82.3196ZM95.1201 24.24C94.0534 24.24 93.0801 23.9933 92.2001 23.5C91.3334 23.0067 90.6401 22.3333 90.1201 21.48C89.6134 20.6267 89.3601 19.6533 89.3601 18.56C89.3601 17.4667 89.6134 16.4933 90.1201 15.64C90.6401 14.7867 91.3334 14.1133 92.2001 13.62C93.0667 13.1267 94.0401 12.88 95.1201 12.88C96.1867 12.88 97.1534 13.1267 98.0201 13.62C98.8867 14.1133 99.5734 14.7867 100.08 15.64C100.6 16.48 100.86 17.4533 100.86 18.56C100.86 19.6533 100.6 20.6267 100.08 21.48C99.5601 22.3333 98.8667 23.0067 98.0001 23.5C97.1334 23.9933 96.1734 24.24 95.1201 24.24ZM95.1201 21.84C95.7067 21.84 96.2201 21.7 96.6601 21.42C97.1134 21.14 97.4667 20.7533 97.7201 20.26C97.9867 19.7533 98.1201 19.1867 98.1201 18.56C98.1201 17.92 97.9867 17.36 97.7201 16.88C97.4667 16.3867 97.1134 16 96.6601 15.72C96.2201 15.4267 95.7067 15.28 95.1201 15.28C94.5201 15.28 93.9934 15.4267 93.5401 15.72C93.0867 16 92.7267 16.3867 92.4601 16.88C92.2067 17.36 92.0801 17.92 92.0801 18.56C92.0801 19.1867 92.2067 19.7533 92.4601 20.26C92.7267 20.7533 93.0867 21.14 93.5401 21.42C93.9934 21.7 94.5201 21.84 95.1201 21.84ZM105.932 24L101.652 13.12H104.512L107.612 21.68H106.552L109.672 13.12H112.532L108.252 24H105.932ZM118.944 24.24C117.824 24.24 116.844 23.9867 116.004 23.48C115.164 22.9733 114.511 22.2867 114.044 21.42C113.578 20.5533 113.344 19.5933 113.344 18.54C113.344 17.4467 113.578 16.48 114.044 15.64C114.524 14.7867 115.171 14.1133 115.984 13.62C116.811 13.1267 117.731 12.88 118.744 12.88C119.598 12.88 120.344 13.02 120.984 13.3C121.638 13.58 122.191 13.9667 122.644 14.46C123.098 14.9533 123.444 15.52 123.684 16.16C123.924 16.7867 124.044 17.4667 124.044 18.2C124.044 18.3867 124.031 18.58 124.004 18.78C123.991 18.98 123.958 19.1533 123.904 19.3H115.504V17.3H122.424L121.184 18.24C121.304 17.6267 121.271 17.08 121.084 16.6C120.911 16.12 120.618 15.74 120.204 15.46C119.804 15.18 119.318 15.04 118.744 15.04C118.198 15.04 117.711 15.18 117.284 15.46C116.858 15.7267 116.531 16.1267 116.304 16.66C116.091 17.18 116.011 17.8133 116.064 18.56C116.011 19.2267 116.098 19.82 116.324 20.34C116.564 20.8467 116.911 21.24 117.364 21.52C117.831 21.8 118.364 21.94 118.964 21.94C119.564 21.94 120.071 21.8133 120.484 21.56C120.911 21.3067 121.244 20.9667 121.484 20.54L123.604 21.58C123.391 22.1 123.058 22.56 122.604 22.96C122.151 23.36 121.611 23.6733 120.984 23.9C120.371 24.1267 119.691 24.24 118.944 24.24Z" fill="#100A55"/>
<g clip-path="url(#clip0_93_564)">
<path d="M25.2249 11.6133L18.1448 6.08264C17.5234 5.59719 16.7587 5.33362 15.9715 5.33362C15.1843 5.33362 14.4195 5.59719 13.7982 6.08264L6.7167 11.6133C6.29112 11.9457 5.94681 12.3713 5.71004 12.8578C5.47328 13.3442 5.35033 13.8785 5.35059 14.42V24.02C5.35059 24.7272 5.63033 25.4055 6.12828 25.9056C6.62623 26.4057 7.3016 26.6866 8.00581 26.6866H23.9371C24.6414 26.6866 25.3167 26.4057 25.8147 25.9056C26.3126 25.4055 26.5924 24.7272 26.5924 24.02V14.42C26.5924 13.3226 26.0879 12.2866 25.2249 11.6133Z" fill="#7065F0" stroke="#7065F0" stroke-width="3" stroke-linecap="round" stroke-linejoin="round"/>
<path d="M21.242 20C18.308 21.7773 13.5525 21.7773 10.6211 20" stroke="#F9FAFB" stroke-width="3" stroke-linecap="round" stroke-linejoin="round"/>
</g>
<defs>
<clipPath id="clip0_93_564">
<rect width="31.8627" height="32" fill="white"/>
</clipPath>
</defs>
</svg>
