<svg width="75" height="113.84" viewBox="0 0 56 85" fill="none" xmlns="http://www.w3.org/2000/svg">
<circle cx="28" cy="77" r="8" fill="#CECBF6"/>
<circle cx="28" cy="28" r="28" fill="#7065F0"/>
<g clip-path="url(#clip0_82_333)">
<path d="M35.0003 24.71L29.6673 20.562C29.1993 20.1979 28.6232 20.0002 28.0303 20.0002C27.4373 20.0002 26.8613 20.1979 26.3933 20.562L21.0593 24.71C20.7387 24.9592 20.4794 25.2785 20.301 25.6433C20.1227 26.0081 20.0301 26.4089 20.0303 26.815V34.015C20.0303 34.5454 20.241 35.0541 20.6161 35.4292C20.9911 35.8042 21.4998 36.015 22.0303 36.015H34.0303C34.5607 36.015 35.0694 35.8042 35.4445 35.4292C35.8196 35.0541 36.0303 34.5454 36.0303 34.015V26.815C36.0303 25.992 35.6503 25.215 35.0003 24.71Z" fill="white" stroke="white" stroke-width="3" stroke-linecap="round" stroke-linejoin="round"/>
<path d="M32 31C29.79 32.333 26.208 32.333 24 31" stroke="#7065F0" stroke-width="3" stroke-linecap="round" stroke-linejoin="round"/>
</g>
<path d="M29.732 61C28.9622 62.3333 27.0377 62.3333 26.2679 61L22.8038 55C22.034 53.6667 22.9963 52 24.5359 52L31.4641 52C33.0037 52 33.966 53.6667 33.1962 55L29.732 61Z" fill="#7065F0"/>
<defs>
<clipPath id="clip0_82_333">
<rect width="24" height="24" fill="white" transform="translate(16 16)"/>
</clipPath>
</defs>
</svg>
