<svg width="32" height="32" viewBox="0 0 32 32" fill="none" xmlns="http://www.w3.org/2000/svg">
<g clip-path="url(#clip0_139_108)">
<path d="M25.2246 11.6137L18.1444 6.08301C17.5231 5.59755 16.7584 5.33398 15.9711 5.33398C15.1839 5.33398 14.4192 5.59755 13.7978 6.08301L6.71637 11.6137C6.2908 11.9461 5.94648 12.3717 5.70972 12.8581C5.47295 13.3446 5.35 13.8789 5.35026 14.4203V24.0203C5.35026 24.7276 5.63 25.4059 6.12795 25.906C6.62591 26.4061 7.30127 26.687 8.00548 26.687H23.9368C24.641 26.687 25.3164 26.4061 25.8143 25.906C26.3123 25.4059 26.592 24.7276 26.592 24.0203V14.4203C26.592 13.323 26.0875 12.287 25.2246 11.6137Z" fill="#7065F0" stroke="#7065F0" stroke-width="3" stroke-linecap="round" stroke-linejoin="round"/>
<path d="M21.2418 20C18.3078 21.7773 13.5523 21.7773 10.6209 20" stroke="#F9FAFB" stroke-width="3" stroke-linecap="round" stroke-linejoin="round"/>
</g>
<defs>
<clipPath id="clip0_139_108">
<rect width="31.8627" height="32" fill="white"/>
</clipPath>
</defs>
</svg>
